{
	"asset":{
		"generator":"Khronos glTF Blender I/O v4.5.47",
		"version":"2.0"
	},
	"scene":0,
	"scenes":[
		{
			"name":"Scene",
			"nodes":[
				0,
				1,
				2,
				3,
				4,
				5,
				6,
				7,
				8,
				9,
				10,
				11
			]
		}
	],
	"nodes":[
		{
			"mesh":0,
			"name":"Horse_combine1",
			"translation":[
				-254.95899963378906,
				0,
				0
			]
		},
		{
			"mesh":1,
			"name":"Horse_combine2",
			"rotation":[
				0,
				0.5,
				0,
				0.866025447845459
			],
			"translation":[
				-123.16336059570312,
				150,
				218.31161499023438
			]
		},
		{
			"mesh":2,
			"name":"Horse_combine3",
			"rotation":[
				0,
				0.8660253882408142,
				0,
				0.5
			],
			"translation":[
				131.79786682128906,
				0,
				213.3290557861328
			]
		},
		{
			"mesh":3,
			"name":"Horse_combine4",
			"rotation":[
				0,
				1,
				0,
				6.123234262925839e-17
			],
			"translation":[
				254.9634552001953,
				150,
				-9.965126037597656
			]
		},
		{
			"mesh":4,
			"name":"Horse_combine5",
			"rotation":[
				0,
				-0.8660253882408142,
				0,
				0.5
			],
			"translation":[
				123.16781616210938,
				0,
				-228.27674865722656
			]
		},
		{
			"mesh":5,
			"name":"Horse_combine6",
			"rotation":[
				0,
				-0.5,
				0,
				0.866025447845459
			],
			"translation":[
				-131.7934112548828,
				150,
				-223.29417419433594
			]
		},
		{
			"mesh":6,
			"name":"Horse_combine7",
			"rotation":[
				0,
				0.2588191032409668,
				0,
				0.9659258127212524
			],
			"translation":[
				472.03582763671875,
				0,
				-271.7579345703125
			]
		},
		{
			"mesh":7,
			"name":"Horse_combine8",
			"rotation":[
				0,
				-0.2588191032409668,
				0,
				0.9659258127212524
			],
			"translation":[
				467.0532531738281,
				100,
				270.4228515625
			]
		},
		{
			"mesh":8,
			"name":"Horse_combine9",
			"rotation":[
				0,
				-0.7071068286895752,
				0,
				0.7071067094802856
			],
			"translation":[
				-4.980337142944336,
				0,
				537.1981811523438
			]
		},
		{
			"mesh":9,
			"name":"Horse_combine10",
			"rotation":[
				0,
				-0.965925931930542,
				0,
				0.258819043636322
			],
			"translation":[
				-472.0313720703125,
				100,
				261.79278564453125
			]
		},
		{
			"mesh":10,
			"name":"Horse_combine11",
			"rotation":[
				0,
				0.965925931930542,
				0,
				0.258819043636322
			],
			"translation":[
				-467.048828125,
				0,
				-280.3879699707031
			]
		},
		{
			"mesh":11,
			"name":"Horse_combine12",
			"rotation":[
				0,
				0.7071068286895752,
				0,
				0.7071067094802856
			],
			"translation":[
				4.98478889465332,
				100,
				-547.163330078125
			]
		}
	],
	"materials":[
		{
			"name":"lambert2",
			"normalTexture":{
				"index":0
			},
			"occlusionTexture":{
				"index":1
			},
			"pbrMetallicRoughness":{
				"baseColorTexture":{
					"index":2
				},
				"metallicRoughnessTexture":{
					"index":1
				}
			}
		}
	],
	"meshes":[
		{
			"name":"Horse_combine1",
			"primitives":[
				{
					"attributes":{
						"POSITION":0,
						"NORMAL":1,
						"TEXCOORD_0":2
					},
					"indices":3,
					"material":0
				}
			]
		},
		{
			"name":"Horse_combine2",
			"primitives":[
				{
					"attributes":{
						"POSITION":4,
						"NORMAL":5,
						"TEXCOORD_0":6
					},
					"indices":3,
					"material":0
				}
			]
		},
		{
			"name":"Horse_combine3",
			"primitives":[
				{
					"attributes":{
						"POSITION":7,
						"NORMAL":8,
						"TEXCOORD_0":9
					},
					"indices":3,
					"material":0
				}
			]
		},
		{
			"name":"Horse_combine4",
			"primitives":[
				{
					"attributes":{
						"POSITION":10,
						"NORMAL":11,
						"TEXCOORD_0":12
					},
					"indices":3,
					"material":0
				}
			]
		},
		{
			"name":"Horse_combine5",
			"primitives":[
				{
					"attributes":{
						"POSITION":13,
						"NORMAL":14,
						"TEXCOORD_0":15
					},
					"indices":3,
					"material":0
				}
			]
		},
		{
			"name":"Horse_combine6",
			"primitives":[
				{
					"attributes":{
						"POSITION":16,
						"NORMAL":17,
						"TEXCOORD_0":18
					},
					"indices":3,
					"material":0
				}
			]
		},
		{
			"name":"Horse_combine7",
			"primitives":[
				{
					"attributes":{
						"POSITION":19,
						"NORMAL":20,
						"TEXCOORD_0":21
					},
					"indices":3,
					"material":0
				}
			]
		},
		{
			"name":"Horse_combine8",
			"primitives":[
				{
					"attributes":{
						"POSITION":22,
						"NORMAL":23,
						"TEXCOORD_0":24
					},
					"indices":3,
					"material":0
				}
			]
		},
		{
			"name":"Horse_combine9",
			"primitives":[
				{
					"attributes":{
						"POSITION":25,
						"NORMAL":26,
						"TEXCOORD_0":27
					},
					"indices":3,
					"material":0
				}
			]
		},
		{
			"name":"Horse_combine10",
			"primitives":[
				{
					"attributes":{
						"POSITION":28,
						"NORMAL":29,
						"TEXCOORD_0":30
					},
					"indices":3,
					"material":0
				}
			]
		},
		{
			"name":"Horse_combine11",
			"primitives":[
				{
					"attributes":{
						"POSITION":31,
						"NORMAL":32,
						"TEXCOORD_0":33
					},
					"indices":3,
					"material":0
				}
			]
		},
		{
			"name":"Horse_combine12",
			"primitives":[
				{
					"attributes":{
						"POSITION":34,
						"NORMAL":35,
						"TEXCOORD_0":36
					},
					"indices":3,
					"material":0
				}
			]
		}
	],
	"textures":[
		{
			"sampler":0,
			"source":0
		},
		{
			"sampler":0,
			"source":1
		},
		{
			"sampler":0,
			"source":2
		}
	],
	"images":[
		{
			"mimeType":"image/jpeg",
			"name":"Image_1",
			"uri":"Image_1.jpg"
		},
		{
			"mimeType":"image/png",
			"name":"Image_2-Image_0",
			"uri":"Image_2-Image_0.png"
		},
		{
			"mimeType":"image/jpeg",
			"name":"Image_3",
			"uri":"Image_3.jpg"
		}
	],
	"accessors":[
		{
			"bufferView":0,
			"componentType":5126,
			"count":13677,
			"max":[
				44.049068450927734,
				218.7486114501953,
				92.97251892089844
			],
			"min":[
				-44.04461669921875,
				0.10538482666015625,
				-102.9376449584961
			],
			"type":"VEC3"
		},
		{
			"bufferView":1,
			"componentType":5126,
			"count":13677,
			"type":"VEC3"
		},
		{
			"bufferView":2,
			"componentType":5126,
			"count":13677,
			"type":"VEC2"
		},
		{
			"bufferView":3,
			"componentType":5123,
			"count":55788,
			"type":"SCALAR"
		},
		{
			"bufferView":4,
			"componentType":5126,
			"count":13677,
			"max":[
				44.049068450927734,
				218.7486114501953,
				92.97251892089844
			],
			"min":[
				-44.04461669921875,
				0.10538482666015625,
				-102.9376449584961
			],
			"type":"VEC3"
		},
		{
			"bufferView":5,
			"componentType":5126,
			"count":13677,
			"type":"VEC3"
		},
		{
			"bufferView":6,
			"componentType":5126,
			"count":13677,
			"type":"VEC2"
		},
		{
			"bufferView":7,
			"componentType":5126,
			"count":13677,
			"max":[
				44.049068450927734,
				218.7486114501953,
				92.97251892089844
			],
			"min":[
				-44.04461669921875,
				0.10538482666015625,
				-102.9376449584961
			],
			"type":"VEC3"
		},
		{
			"bufferView":8,
			"componentType":5126,
			"count":13677,
			"type":"VEC3"
		},
		{
			"bufferView":9,
			"componentType":5126,
			"count":13677,
			"type":"VEC2"
		},
		{
			"bufferView":10,
			"componentType":5126,
			"count":13677,
			"max":[
				44.049068450927734,
				218.7486114501953,
				92.97251892089844
			],
			"min":[
				-44.04461669921875,
				0.10538482666015625,
				-102.9376449584961
			],
			"type":"VEC3"
		},
		{
			"bufferView":11,
			"componentType":5126,
			"count":13677,
			"type":"VEC3"
		},
		{
			"bufferView":12,
			"componentType":5126,
			"count":13677,
			"type":"VEC2"
		},
		{
			"bufferView":13,
			"componentType":5126,
			"count":13677,
			"max":[
				44.049068450927734,
				218.7486114501953,
				92.97251892089844
			],
			"min":[
				-44.04461669921875,
				0.10538482666015625,
				-102.9376449584961
			],
			"type":"VEC3"
		},
		{
			"bufferView":14,
			"componentType":5126,
			"count":13677,
			"type":"VEC3"
		},
		{
			"bufferView":15,
			"componentType":5126,
			"count":13677,
			"type":"VEC2"
		},
		{
			"bufferView":16,
			"componentType":5126,
			"count":13677,
			"max":[
				44.049068450927734,
				218.7486114501953,
				92.97251892089844
			],
			"min":[
				-44.04461669921875,
				0.10538482666015625,
				-102.9376449584961
			],
			"type":"VEC3"
		},
		{
			"bufferView":17,
			"componentType":5126,
			"count":13677,
			"type":"VEC3"
		},
		{
			"bufferView":18,
			"componentType":5126,
			"count":13677,
			"type":"VEC2"
		},
		{
			"bufferView":19,
			"componentType":5126,
			"count":13677,
			"max":[
				44.049068450927734,
				218.7486114501953,
				92.97251892089844
			],
			"min":[
				-44.04461669921875,
				0.10538482666015625,
				-102.9376449584961
			],
			"type":"VEC3"
		},
		{
			"bufferView":20,
			"componentType":5126,
			"count":13677,
			"type":"VEC3"
		},
		{
			"bufferView":21,
			"componentType":5126,
			"count":13677,
			"type":"VEC2"
		},
		{
			"bufferView":22,
			"componentType":5126,
			"count":13677,
			"max":[
				44.049068450927734,
				218.7486114501953,
				92.97251892089844
			],
			"min":[
				-44.04461669921875,
				0.10538482666015625,
				-102.9376449584961
			],
			"type":"VEC3"
		},
		{
			"bufferView":23,
			"componentType":5126,
			"count":13677,
			"type":"VEC3"
		},
		{
			"bufferView":24,
			"componentType":5126,
			"count":13677,
			"type":"VEC2"
		},
		{
			"bufferView":25,
			"componentType":5126,
			"count":13677,
			"max":[
				44.049068450927734,
				218.7486114501953,
				92.97251892089844
			],
			"min":[
				-44.04461669921875,
				0.10538482666015625,
				-102.9376449584961
			],
			"type":"VEC3"
		},
		{
			"bufferView":26,
			"componentType":5126,
			"count":13677,
			"type":"VEC3"
		},
		{
			"bufferView":27,
			"componentType":5126,
			"count":13677,
			"type":"VEC2"
		},
		{
			"bufferView":28,
			"componentType":5126,
			"count":13677,
			"max":[
				44.049068450927734,
				218.7486114501953,
				92.97251892089844
			],
			"min":[
				-44.04461669921875,
				0.10538482666015625,
				-102.9376449584961
			],
			"type":"VEC3"
		},
		{
			"bufferView":29,
			"componentType":5126,
			"count":13677,
			"type":"VEC3"
		},
		{
			"bufferView":30,
			"componentType":5126,
			"count":13677,
			"type":"VEC2"
		},
		{
			"bufferView":31,
			"componentType":5126,
			"count":13677,
			"max":[
				44.049068450927734,
				218.7486114501953,
				92.97251892089844
			],
			"min":[
				-44.04461669921875,
				0.10538482666015625,
				-102.9376449584961
			],
			"type":"VEC3"
		},
		{
			"bufferView":32,
			"componentType":5126,
			"count":13677,
			"type":"VEC3"
		},
		{
			"bufferView":33,
			"componentType":5126,
			"count":13677,
			"type":"VEC2"
		},
		{
			"bufferView":34,
			"componentType":5126,
			"count":13677,
			"max":[
				44.049068450927734,
				218.7486114501953,
				92.97251892089844
			],
			"min":[
				-44.04461669921875,
				0.10538482666015625,
				-102.9376449584961
			],
			"type":"VEC3"
		},
		{
			"bufferView":35,
			"componentType":5126,
			"count":13677,
			"type":"VEC3"
		},
		{
			"bufferView":36,
			"componentType":5126,
			"count":13677,
			"type":"VEC2"
		}
	],
	"bufferViews":[
		{
			"buffer":0,
			"byteLength":164124,
			"byteOffset":0,
			"target":34962
		},
		{
			"buffer":0,
			"byteLength":164124,
			"byteOffset":164124,
			"target":34962
		},
		{
			"buffer":0,
			"byteLength":109416,
			"byteOffset":328248,
			"target":34962
		},
		{
			"buffer":0,
			"byteLength":111576,
			"byteOffset":437664,
			"target":34963
		},
		{
			"buffer":0,
			"byteLength":164124,
			"byteOffset":549240,
			"target":34962
		},
		{
			"buffer":0,
			"byteLength":164124,
			"byteOffset":713364,
			"target":34962
		},
		{
			"buffer":0,
			"byteLength":109416,
			"byteOffset":877488,
			"target":34962
		},
		{
			"buffer":0,
			"byteLength":164124,
			"byteOffset":986904,
			"target":34962
		},
		{
			"buffer":0,
			"byteLength":164124,
			"byteOffset":1151028,
			"target":34962
		},
		{
			"buffer":0,
			"byteLength":109416,
			"byteOffset":1315152,
			"target":34962
		},
		{
			"buffer":0,
			"byteLength":164124,
			"byteOffset":1424568,
			"target":34962
		},
		{
			"buffer":0,
			"byteLength":164124,
			"byteOffset":1588692,
			"target":34962
		},
		{
			"buffer":0,
			"byteLength":109416,
			"byteOffset":1752816,
			"target":34962
		},
		{
			"buffer":0,
			"byteLength":164124,
			"byteOffset":1862232,
			"target":34962
		},
		{
			"buffer":0,
			"byteLength":164124,
			"byteOffset":2026356,
			"target":34962
		},
		{
			"buffer":0,
			"byteLength":109416,
			"byteOffset":2190480,
			"target":34962
		},
		{
			"buffer":0,
			"byteLength":164124,
			"byteOffset":2299896,
			"target":34962
		},
		{
			"buffer":0,
			"byteLength":164124,
			"byteOffset":2464020,
			"target":34962
		},
		{
			"buffer":0,
			"byteLength":109416,
			"byteOffset":2628144,
			"target":34962
		},
		{
			"buffer":0,
			"byteLength":164124,
			"byteOffset":2737560,
			"target":34962
		},
		{
			"buffer":0,
			"byteLength":164124,
			"byteOffset":2901684,
			"target":34962
		},
		{
			"buffer":0,
			"byteLength":109416,
			"byteOffset":3065808,
			"target":34962
		},
		{
			"buffer":0,
			"byteLength":164124,
			"byteOffset":3175224,
			"target":34962
		},
		{
			"buffer":0,
			"byteLength":164124,
			"byteOffset":3339348,
			"target":34962
		},
		{
			"buffer":0,
			"byteLength":109416,
			"byteOffset":3503472,
			"target":34962
		},
		{
			"buffer":0,
			"byteLength":164124,
			"byteOffset":3612888,
			"target":34962
		},
		{
			"buffer":0,
			"byteLength":164124,
			"byteOffset":3777012,
			"target":34962
		},
		{
			"buffer":0,
			"byteLength":109416,
			"byteOffset":3941136,
			"target":34962
		},
		{
			"buffer":0,
			"byteLength":164124,
			"byteOffset":4050552,
			"target":34962
		},
		{
			"buffer":0,
			"byteLength":164124,
			"byteOffset":4214676,
			"target":34962
		},
		{
			"buffer":0,
			"byteLength":109416,
			"byteOffset":4378800,
			"target":34962
		},
		{
			"buffer":0,
			"byteLength":164124,
			"byteOffset":4488216,
			"target":34962
		},
		{
			"buffer":0,
			"byteLength":164124,
			"byteOffset":4652340,
			"target":34962
		},
		{
			"buffer":0,
			"byteLength":109416,
			"byteOffset":4816464,
			"target":34962
		},
		{
			"buffer":0,
			"byteLength":164124,
			"byteOffset":4925880,
			"target":34962
		},
		{
			"buffer":0,
			"byteLength":164124,
			"byteOffset":5090004,
			"target":34962
		},
		{
			"buffer":0,
			"byteLength":109416,
			"byteOffset":5254128,
			"target":34962
		}
	],
	"samplers":[
		{
			"magFilter":9729,
			"minFilter":9987
		}
	],
	"buffers":[
		{
			"byteLength":5363544,
			"uri":"Horse_animation.bin"
		}
	]
}
