{
	"asset":{
		"generator":"Khronos glTF Blender I/O v4.5.47",
		"version":"2.0"
	},
	"scene":0,
	"scenes":[
		{
			"name":"Scene",
			"nodes":[
				0,
				1,
				2,
				3,
				4,
				5,
				6,
				7,
				8,
				9,
				10,
				11,
				12
			]
		}
	],
	"nodes":[
		{
			"mesh":0,
			"name":"tree_003",
			"rotation":[
				0.7071068286895752,
				0,
				0,
				0.7071068286895752
			],
			"scale":[
				0.009999999776482582,
				0.009999999776482582,
				0.009999999776482582
			],
			"translation":[
				-2.8497211933135986,
				0.9310136437416077,
				-0.21068739891052246
			]
		},
		{
			"mesh":1,
			"name":"Horse_UV3_SM_horse_hair14",
			"rotation":[
				0.3104442059993744,
				0.6887944936752319,
				-0.4822932481765747,
				0.44337308406829834
			],
			"scale":[
				0.009999999776482582,
				0.009999999776482582,
				0.009999999776482582
			],
			"translation":[
				-2.651320457458496,
				1.2806544303894043,
				-0.030281757935881615
			]
		},
		{
			"mesh":2,
			"name":"Horse_UV3_SM_horse_hair15",
			"rotation":[
				0.1604456603527069,
				-0.7864508032798767,
				0.5506787896156311,
				0.22914022207260132
			],
			"scale":[
				0.009999999776482582,
				0.009999999776482582,
				0.009999998845160007
			],
			"translation":[
				0.20078159868717194,
				0.4888024926185608,
				-2.429509162902832
			]
		},
		{
			"mesh":3,
			"name":"Horse_UV3_SM_horse_hair16",
			"rotation":[
				0.4007556438446045,
				-0.5860365629196167,
				0.41034722328186035,
				0.572338342666626
			],
			"scale":[
				0.009999999776482582,
				0.009999999776482582,
				0.009999998845160007
			],
			"translation":[
				-1.499986171722412,
				3.157028913497925,
				-0.9361966252326965
			]
		},
		{
			"mesh":4,
			"name":"Horse_UV3_SM_horse_hair17",
			"rotation":[
				0.5735442042350769,
				-0.008685123175382614,
				0.0060813878662884235,
				0.8191059827804565
			],
			"scale":[
				0.009999999776482582,
				0.009999999776482582,
				0.009999998845160007
			],
			"translation":[
				-0.27903124690055847,
				3.601224184036255,
				0.3844839036464691
			]
		},
		{
			"mesh":5,
			"name":"Horse_UV3_SM_horse_hair18",
			"rotation":[
				0.4560645520687103,
				-0.4967719316482544,
				0.3478434383869171,
				0.6513276696205139
			],
			"scale":[
				0.009999999776482582,
				0.009999999776482582,
				0.009999998845160007
			],
			"translation":[
				-1.1431201696395874,
				1.9865020513534546,
				-2.8629283905029297
			]
		},
		{
			"mesh":6,
			"name":"Horse_UV3_SM_horse_hair19",
			"rotation":[
				0.5338195562362671,
				0.2996614873409271,
				-0.20982518792152405,
				0.7623733282089233
			],
			"scale":[
				0.009999999776482582,
				0.009999999776482582,
				0.009999998845160007
			],
			"translation":[
				1.6073352098464966,
				2.1038732528686523,
				0.13772693276405334
			]
		},
		{
			"mesh":7,
			"name":"Horse_UV3_SM_horse_hair20",
			"rotation":[
				0.20107221603393555,
				-0.7671692371368408,
				0.5371777415275574,
				0.2871609032154083
			],
			"scale":[
				0.009999999776482582,
				0.009999999776482582,
				0.009999998845160007
			],
			"translation":[
				-2.2905936241149902,
				0.15422235429286957,
				-2.4856672286987305
			]
		},
		{
			"mesh":8,
			"name":"Horse_UV3_SM_horse_hair21",
			"rotation":[
				0.534534215927124,
				0.2970517873764038,
				-0.2079978883266449,
				0.7633939385414124
			],
			"scale":[
				0.009999999776482582,
				0.009999999776482582,
				0.009999998845160007
			],
			"translation":[
				0.7981880307197571,
				1.2679566144943237,
				-1.0542218685150146
			]
		},
		{
			"mesh":9,
			"name":"Horse_UV3_SM_horse_hair22",
			"rotation":[
				0.25829988718032837,
				-0.7313889861106873,
				0.5121241807937622,
				0.3688904345035553
			],
			"scale":[
				0.009999999776482582,
				0.009999999776482582,
				0.009999998845160007
			],
			"translation":[
				0.7588561773300171,
				3.098132848739624,
				-1.8772221803665161
			]
		},
		{
			"mesh":10,
			"name":"Horse_UV3_SM_horse_hair23",
			"rotation":[
				0.47746407985687256,
				-0.4539130628108978,
				0.3178333640098572,
				0.6818892359733582
			],
			"scale":[
				0.009999999776482582,
				0.009999999776482582,
				0.009999998845160007
			],
			"translation":[
				-1.2082690000534058,
				1.6629148721694946,
				1.7503787279129028
			]
		},
		{
			"mesh":11,
			"name":"Horse_UV3_SM_horse_hair24",
			"rotation":[
				0.15426543354988098,
				0.7889688014984131,
				-0.5524420738220215,
				0.22031386196613312
			],
			"scale":[
				0.009999999776482582,
				0.009999999776482582,
				0.009999998845160007
			],
			"translation":[
				-0.29935672879219055,
				0.5463963150978088,
				1.4918566942214966
			]
		},
		{
			"mesh":12,
			"name":"Horse_UV3_SM_horse_hair25",
			"rotation":[
				0.06416473537683487,
				0.8140102624893188,
				-0.5699762105941772,
				0.09163675457239151
			],
			"scale":[
				0.009999999776482582,
				0.009999999776482582,
				0.009999998845160007
			],
			"translation":[
				0.5537884831428528,
				2.381286859512329,
				1.9433878660202026
			]
		}
	],
	"animations":[
		{
			"channels":[
				{
					"sampler":0,
					"target":{
						"node":1,
						"path":"translation"
					}
				},
				{
					"sampler":1,
					"target":{
						"node":1,
						"path":"rotation"
					}
				},
				{
					"sampler":2,
					"target":{
						"node":1,
						"path":"scale"
					}
				},
				{
					"sampler":3,
					"target":{
						"node":2,
						"path":"translation"
					}
				},
				{
					"sampler":4,
					"target":{
						"node":2,
						"path":"rotation"
					}
				},
				{
					"sampler":5,
					"target":{
						"node":2,
						"path":"scale"
					}
				},
				{
					"sampler":6,
					"target":{
						"node":3,
						"path":"translation"
					}
				},
				{
					"sampler":7,
					"target":{
						"node":3,
						"path":"rotation"
					}
				},
				{
					"sampler":8,
					"target":{
						"node":3,
						"path":"scale"
					}
				},
				{
					"sampler":9,
					"target":{
						"node":4,
						"path":"translation"
					}
				},
				{
					"sampler":10,
					"target":{
						"node":4,
						"path":"rotation"
					}
				},
				{
					"sampler":11,
					"target":{
						"node":4,
						"path":"scale"
					}
				},
				{
					"sampler":12,
					"target":{
						"node":5,
						"path":"translation"
					}
				},
				{
					"sampler":13,
					"target":{
						"node":5,
						"path":"rotation"
					}
				},
				{
					"sampler":14,
					"target":{
						"node":5,
						"path":"scale"
					}
				},
				{
					"sampler":15,
					"target":{
						"node":6,
						"path":"translation"
					}
				},
				{
					"sampler":16,
					"target":{
						"node":6,
						"path":"rotation"
					}
				},
				{
					"sampler":17,
					"target":{
						"node":6,
						"path":"scale"
					}
				},
				{
					"sampler":18,
					"target":{
						"node":7,
						"path":"translation"
					}
				},
				{
					"sampler":19,
					"target":{
						"node":7,
						"path":"rotation"
					}
				},
				{
					"sampler":20,
					"target":{
						"node":7,
						"path":"scale"
					}
				},
				{
					"sampler":21,
					"target":{
						"node":8,
						"path":"translation"
					}
				},
				{
					"sampler":22,
					"target":{
						"node":8,
						"path":"rotation"
					}
				},
				{
					"sampler":23,
					"target":{
						"node":8,
						"path":"scale"
					}
				},
				{
					"sampler":24,
					"target":{
						"node":9,
						"path":"translation"
					}
				},
				{
					"sampler":25,
					"target":{
						"node":9,
						"path":"rotation"
					}
				},
				{
					"sampler":26,
					"target":{
						"node":9,
						"path":"scale"
					}
				},
				{
					"sampler":27,
					"target":{
						"node":10,
						"path":"translation"
					}
				},
				{
					"sampler":28,
					"target":{
						"node":10,
						"path":"rotation"
					}
				},
				{
					"sampler":29,
					"target":{
						"node":10,
						"path":"scale"
					}
				},
				{
					"sampler":30,
					"target":{
						"node":11,
						"path":"translation"
					}
				},
				{
					"sampler":31,
					"target":{
						"node":11,
						"path":"rotation"
					}
				},
				{
					"sampler":32,
					"target":{
						"node":11,
						"path":"scale"
					}
				},
				{
					"sampler":33,
					"target":{
						"node":12,
						"path":"translation"
					}
				},
				{
					"sampler":34,
					"target":{
						"node":12,
						"path":"rotation"
					}
				},
				{
					"sampler":35,
					"target":{
						"node":12,
						"path":"scale"
					}
				}
			],
			"name":"Animation",
			"samplers":[
				{
					"input":43,
					"interpolation":"LINEAR",
					"output":44
				},
				{
					"input":43,
					"interpolation":"LINEAR",
					"output":45
				},
				{
					"input":46,
					"interpolation":"STEP",
					"output":47
				},
				{
					"input":43,
					"interpolation":"LINEAR",
					"output":48
				},
				{
					"input":43,
					"interpolation":"LINEAR",
					"output":49
				},
				{
					"input":46,
					"interpolation":"STEP",
					"output":50
				},
				{
					"input":43,
					"interpolation":"LINEAR",
					"output":51
				},
				{
					"input":43,
					"interpolation":"LINEAR",
					"output":52
				},
				{
					"input":46,
					"interpolation":"STEP",
					"output":50
				},
				{
					"input":43,
					"interpolation":"LINEAR",
					"output":53
				},
				{
					"input":43,
					"interpolation":"LINEAR",
					"output":54
				},
				{
					"input":46,
					"interpolation":"STEP",
					"output":50
				},
				{
					"input":43,
					"interpolation":"LINEAR",
					"output":55
				},
				{
					"input":43,
					"interpolation":"LINEAR",
					"output":56
				},
				{
					"input":46,
					"interpolation":"STEP",
					"output":50
				},
				{
					"input":43,
					"interpolation":"LINEAR",
					"output":57
				},
				{
					"input":43,
					"interpolation":"LINEAR",
					"output":58
				},
				{
					"input":46,
					"interpolation":"STEP",
					"output":50
				},
				{
					"input":43,
					"interpolation":"LINEAR",
					"output":59
				},
				{
					"input":43,
					"interpolation":"LINEAR",
					"output":60
				},
				{
					"input":46,
					"interpolation":"STEP",
					"output":50
				},
				{
					"input":43,
					"interpolation":"LINEAR",
					"output":61
				},
				{
					"input":43,
					"interpolation":"LINEAR",
					"output":62
				},
				{
					"input":46,
					"interpolation":"STEP",
					"output":50
				},
				{
					"input":43,
					"interpolation":"LINEAR",
					"output":63
				},
				{
					"input":43,
					"interpolation":"LINEAR",
					"output":64
				},
				{
					"input":46,
					"interpolation":"STEP",
					"output":50
				},
				{
					"input":43,
					"interpolation":"LINEAR",
					"output":65
				},
				{
					"input":43,
					"interpolation":"LINEAR",
					"output":66
				},
				{
					"input":46,
					"interpolation":"STEP",
					"output":50
				},
				{
					"input":43,
					"interpolation":"LINEAR",
					"output":67
				},
				{
					"input":43,
					"interpolation":"LINEAR",
					"output":68
				},
				{
					"input":46,
					"interpolation":"STEP",
					"output":50
				},
				{
					"input":43,
					"interpolation":"LINEAR",
					"output":69
				},
				{
					"input":43,
					"interpolation":"LINEAR",
					"output":70
				},
				{
					"input":46,
					"interpolation":"STEP",
					"output":50
				}
			]
		}
	],
	"materials":[
		{
			"doubleSided":true,
			"name":"Cristmas_tree_03",
			"pbrMetallicRoughness":{
				"baseColorTexture":{
					"index":0
				},
				"metallicFactor":0,
				"roughnessFactor":0.5527864098548889
			}
		},
		{
			"doubleSided":true,
			"name":"lambert2",
			"normalTexture":{
				"index":1
			},
			"pbrMetallicRoughness":{
				"baseColorTexture":{
					"index":2
				},
				"metallicFactor":0,
				"roughnessFactor":0.5527864098548889
			}
		}
	],
	"meshes":[
		{
			"name":"Mesh",
			"primitives":[
				{
					"attributes":{
						"POSITION":0,
						"NORMAL":1,
						"TEXCOORD_0":2,
						"COLOR_0":3,
						"COLOR_1":4
					},
					"indices":5,
					"material":0
				}
			]
		},
		{
			"name":"Mesh.002",
			"primitives":[
				{
					"attributes":{
						"POSITION":6,
						"NORMAL":7,
						"TEXCOORD_0":8
					},
					"indices":9,
					"material":1
				}
			]
		},
		{
			"name":"Mesh.003",
			"primitives":[
				{
					"attributes":{
						"POSITION":10,
						"NORMAL":11,
						"TEXCOORD_0":12
					},
					"indices":9,
					"material":1
				}
			]
		},
		{
			"name":"Mesh.004",
			"primitives":[
				{
					"attributes":{
						"POSITION":13,
						"NORMAL":14,
						"TEXCOORD_0":15
					},
					"indices":9,
					"material":1
				}
			]
		},
		{
			"name":"Mesh.005",
			"primitives":[
				{
					"attributes":{
						"POSITION":16,
						"NORMAL":17,
						"TEXCOORD_0":18
					},
					"indices":9,
					"material":1
				}
			]
		},
		{
			"name":"Mesh.006",
			"primitives":[
				{
					"attributes":{
						"POSITION":19,
						"NORMAL":20,
						"TEXCOORD_0":21
					},
					"indices":9,
					"material":1
				}
			]
		},
		{
			"name":"Mesh.007",
			"primitives":[
				{
					"attributes":{
						"POSITION":22,
						"NORMAL":23,
						"TEXCOORD_0":24
					},
					"indices":9,
					"material":1
				}
			]
		},
		{
			"name":"Mesh.008",
			"primitives":[
				{
					"attributes":{
						"POSITION":25,
						"NORMAL":26,
						"TEXCOORD_0":27
					},
					"indices":9,
					"material":1
				}
			]
		},
		{
			"name":"Mesh.009",
			"primitives":[
				{
					"attributes":{
						"POSITION":28,
						"NORMAL":29,
						"TEXCOORD_0":30
					},
					"indices":9,
					"material":1
				}
			]
		},
		{
			"name":"Mesh.010",
			"primitives":[
				{
					"attributes":{
						"POSITION":31,
						"NORMAL":32,
						"TEXCOORD_0":33
					},
					"indices":9,
					"material":1
				}
			]
		},
		{
			"name":"Mesh.011",
			"primitives":[
				{
					"attributes":{
						"POSITION":34,
						"NORMAL":35,
						"TEXCOORD_0":36
					},
					"indices":9,
					"material":1
				}
			]
		},
		{
			"name":"Mesh.012",
			"primitives":[
				{
					"attributes":{
						"POSITION":37,
						"NORMAL":38,
						"TEXCOORD_0":39
					},
					"indices":9,
					"material":1
				}
			]
		},
		{
			"name":"Mesh.013",
			"primitives":[
				{
					"attributes":{
						"POSITION":40,
						"NORMAL":41,
						"TEXCOORD_0":42
					},
					"indices":9,
					"material":1
				}
			]
		}
	],
	"textures":[
		{
			"sampler":0,
			"source":0
		},
		{
			"sampler":0,
			"source":1
		},
		{
			"sampler":0,
			"source":2
		}
	],
	"images":[
		{
			"mimeType":"image/png",
			"name":"meta logo",
			"uri":"meta%20logo.png"
		},
		{
			"mimeType":"image/jpeg",
			"name":"246t_normal",
			"uri":"246t_normal.jpg"
		},
		{
			"mimeType":"image/png",
			"name":"file10",
			"uri":"file10.png"
		}
	],
	"accessors":[
		{
			"bufferView":0,
			"componentType":5126,
			"count":160,
			"max":[
				245.81016540527344,
				-67.19429779052734,
				93.41001892089844
			],
			"min":[
				184.685546875,
				-91.45577239990234,
				30.320663452148438
			],
			"type":"VEC3"
		},
		{
			"bufferView":1,
			"componentType":5126,
			"count":160,
			"type":"VEC3"
		},
		{
			"bufferView":2,
			"componentType":5126,
			"count":160,
			"type":"VEC2"
		},
		{
			"bufferView":3,
			"componentType":5121,
			"count":160,
			"normalized":true,
			"type":"VEC4"
		},
		{
			"bufferView":4,
			"componentType":5123,
			"count":160,
			"normalized":true,
			"type":"VEC4"
		},
		{
			"bufferView":5,
			"componentType":5123,
			"count":780,
			"type":"SCALAR"
		},
		{
			"bufferView":6,
			"componentType":5126,
			"count":3379,
			"max":[
				11.950950622558594,
				24.403961181640625,
				-0.298583984375
			],
			"min":[
				-11.950948715209961,
				-34.36908721923828,
				-57.58769226074219
			],
			"type":"VEC3"
		},
		{
			"bufferView":7,
			"componentType":5126,
			"count":3379,
			"type":"VEC3"
		},
		{
			"bufferView":8,
			"componentType":5126,
			"count":3379,
			"type":"VEC2"
		},
		{
			"bufferView":9,
			"componentType":5123,
			"count":15726,
			"type":"SCALAR"
		},
		{
			"bufferView":10,
			"componentType":5126,
			"count":3379,
			"max":[
				11.950950622558594,
				24.403961181640625,
				-0.298583984375
			],
			"min":[
				-11.950948715209961,
				-34.36908721923828,
				-57.58769226074219
			],
			"type":"VEC3"
		},
		{
			"bufferView":11,
			"componentType":5126,
			"count":3379,
			"type":"VEC3"
		},
		{
			"bufferView":12,
			"componentType":5126,
			"count":3379,
			"type":"VEC2"
		},
		{
			"bufferView":13,
			"componentType":5126,
			"count":3379,
			"max":[
				11.950950622558594,
				24.403961181640625,
				-0.298583984375
			],
			"min":[
				-11.950948715209961,
				-34.36908721923828,
				-57.58769226074219
			],
			"type":"VEC3"
		},
		{
			"bufferView":14,
			"componentType":5126,
			"count":3379,
			"type":"VEC3"
		},
		{
			"bufferView":15,
			"componentType":5126,
			"count":3379,
			"type":"VEC2"
		},
		{
			"bufferView":16,
			"componentType":5126,
			"count":3379,
			"max":[
				11.950950622558594,
				24.403961181640625,
				-0.298583984375
			],
			"min":[
				-11.950948715209961,
				-34.36908721923828,
				-57.58769226074219
			],
			"type":"VEC3"
		},
		{
			"bufferView":17,
			"componentType":5126,
			"count":3379,
			"type":"VEC3"
		},
		{
			"bufferView":18,
			"componentType":5126,
			"count":3379,
			"type":"VEC2"
		},
		{
			"bufferView":19,
			"componentType":5126,
			"count":3379,
			"max":[
				11.950950622558594,
				24.403961181640625,
				-0.298583984375
			],
			"min":[
				-11.950948715209961,
				-34.36908721923828,
				-57.58769226074219
			],
			"type":"VEC3"
		},
		{
			"bufferView":20,
			"componentType":5126,
			"count":3379,
			"type":"VEC3"
		},
		{
			"bufferView":21,
			"componentType":5126,
			"count":3379,
			"type":"VEC2"
		},
		{
			"bufferView":22,
			"componentType":5126,
			"count":3379,
			"max":[
				11.950950622558594,
				24.403961181640625,
				-0.298583984375
			],
			"min":[
				-11.950948715209961,
				-34.36908721923828,
				-57.58769226074219
			],
			"type":"VEC3"
		},
		{
			"bufferView":23,
			"componentType":5126,
			"count":3379,
			"type":"VEC3"
		},
		{
			"bufferView":24,
			"componentType":5126,
			"count":3379,
			"type":"VEC2"
		},
		{
			"bufferView":25,
			"componentType":5126,
			"count":3379,
			"max":[
				11.950950622558594,
				24.403961181640625,
				-0.298583984375
			],
			"min":[
				-11.950948715209961,
				-34.36908721923828,
				-57.58769226074219
			],
			"type":"VEC3"
		},
		{
			"bufferView":26,
			"componentType":5126,
			"count":3379,
			"type":"VEC3"
		},
		{
			"bufferView":27,
			"componentType":5126,
			"count":3379,
			"type":"VEC2"
		},
		{
			"bufferView":28,
			"componentType":5126,
			"count":3379,
			"max":[
				11.950950622558594,
				24.403961181640625,
				-0.298583984375
			],
			"min":[
				-11.950948715209961,
				-34.36908721923828,
				-57.58769226074219
			],
			"type":"VEC3"
		},
		{
			"bufferView":29,
			"componentType":5126,
			"count":3379,
			"type":"VEC3"
		},
		{
			"bufferView":30,
			"componentType":5126,
			"count":3379,
			"type":"VEC2"
		},
		{
			"bufferView":31,
			"componentType":5126,
			"count":3379,
			"max":[
				11.950950622558594,
				24.403961181640625,
				-0.298583984375
			],
			"min":[
				-11.950948715209961,
				-34.36908721923828,
				-57.58769226074219
			],
			"type":"VEC3"
		},
		{
			"bufferView":32,
			"componentType":5126,
			"count":3379,
			"type":"VEC3"
		},
		{
			"bufferView":33,
			"componentType":5126,
			"count":3379,
			"type":"VEC2"
		},
		{
			"bufferView":34,
			"componentType":5126,
			"count":3379,
			"max":[
				11.950950622558594,
				24.403961181640625,
				-0.298583984375
			],
			"min":[
				-11.950948715209961,
				-34.36908721923828,
				-57.58769226074219
			],
			"type":"VEC3"
		},
		{
			"bufferView":35,
			"componentType":5126,
			"count":3379,
			"type":"VEC3"
		},
		{
			"bufferView":36,
			"componentType":5126,
			"count":3379,
			"type":"VEC2"
		},
		{
			"bufferView":37,
			"componentType":5126,
			"count":3379,
			"max":[
				11.950950622558594,
				24.403961181640625,
				-0.298583984375
			],
			"min":[
				-11.950948715209961,
				-34.36908721923828,
				-57.58769226074219
			],
			"type":"VEC3"
		},
		{
			"bufferView":38,
			"componentType":5126,
			"count":3379,
			"type":"VEC3"
		},
		{
			"bufferView":39,
			"componentType":5126,
			"count":3379,
			"type":"VEC2"
		},
		{
			"bufferView":40,
			"componentType":5126,
			"count":3379,
			"max":[
				11.950950622558594,
				24.403961181640625,
				-0.298583984375
			],
			"min":[
				-11.950948715209961,
				-34.36908721923828,
				-57.58769226074219
			],
			"type":"VEC3"
		},
		{
			"bufferView":41,
			"componentType":5126,
			"count":3379,
			"type":"VEC3"
		},
		{
			"bufferView":42,
			"componentType":5126,
			"count":3379,
			"type":"VEC2"
		},
		{
			"bufferView":43,
			"componentType":5126,
			"count":151,
			"max":[
				5.033333333333333
			],
			"min":[
				0.03333333333333333
			],
			"type":"SCALAR"
		},
		{
			"bufferView":44,
			"componentType":5126,
			"count":151,
			"type":"VEC3"
		},
		{
			"bufferView":45,
			"componentType":5126,
			"count":151,
			"type":"VEC4"
		},
		{
			"bufferView":46,
			"componentType":5126,
			"count":2,
			"max":[
				5.033333333333333
			],
			"min":[
				0.03333333333333333
			],
			"type":"SCALAR"
		},
		{
			"bufferView":47,
			"componentType":5126,
			"count":2,
			"type":"VEC3"
		},
		{
			"bufferView":48,
			"componentType":5126,
			"count":151,
			"type":"VEC3"
		},
		{
			"bufferView":49,
			"componentType":5126,
			"count":151,
			"type":"VEC4"
		},
		{
			"bufferView":50,
			"componentType":5126,
			"count":2,
			"type":"VEC3"
		},
		{
			"bufferView":51,
			"componentType":5126,
			"count":151,
			"type":"VEC3"
		},
		{
			"bufferView":52,
			"componentType":5126,
			"count":151,
			"type":"VEC4"
		},
		{
			"bufferView":53,
			"componentType":5126,
			"count":151,
			"type":"VEC3"
		},
		{
			"bufferView":54,
			"componentType":5126,
			"count":151,
			"type":"VEC4"
		},
		{
			"bufferView":55,
			"componentType":5126,
			"count":151,
			"type":"VEC3"
		},
		{
			"bufferView":56,
			"componentType":5126,
			"count":151,
			"type":"VEC4"
		},
		{
			"bufferView":57,
			"componentType":5126,
			"count":151,
			"type":"VEC3"
		},
		{
			"bufferView":58,
			"componentType":5126,
			"count":151,
			"type":"VEC4"
		},
		{
			"bufferView":59,
			"componentType":5126,
			"count":151,
			"type":"VEC3"
		},
		{
			"bufferView":60,
			"componentType":5126,
			"count":151,
			"type":"VEC4"
		},
		{
			"bufferView":61,
			"componentType":5126,
			"count":151,
			"type":"VEC3"
		},
		{
			"bufferView":62,
			"componentType":5126,
			"count":151,
			"type":"VEC4"
		},
		{
			"bufferView":63,
			"componentType":5126,
			"count":151,
			"type":"VEC3"
		},
		{
			"bufferView":64,
			"componentType":5126,
			"count":151,
			"type":"VEC4"
		},
		{
			"bufferView":65,
			"componentType":5126,
			"count":151,
			"type":"VEC3"
		},
		{
			"bufferView":66,
			"componentType":5126,
			"count":151,
			"type":"VEC4"
		},
		{
			"bufferView":67,
			"componentType":5126,
			"count":151,
			"type":"VEC3"
		},
		{
			"bufferView":68,
			"componentType":5126,
			"count":151,
			"type":"VEC4"
		},
		{
			"bufferView":69,
			"componentType":5126,
			"count":151,
			"type":"VEC3"
		},
		{
			"bufferView":70,
			"componentType":5126,
			"count":151,
			"type":"VEC4"
		}
	],
	"bufferViews":[
		{
			"buffer":0,
			"byteLength":1920,
			"byteOffset":0,
			"target":34962
		},
		{
			"buffer":0,
			"byteLength":1920,
			"byteOffset":1920,
			"target":34962
		},
		{
			"buffer":0,
			"byteLength":1280,
			"byteOffset":3840,
			"target":34962
		},
		{
			"buffer":0,
			"byteLength":640,
			"byteOffset":5120,
			"target":34962
		},
		{
			"buffer":0,
			"byteLength":1280,
			"byteOffset":5760,
			"target":34962
		},
		{
			"buffer":0,
			"byteLength":1560,
			"byteOffset":7040,
			"target":34963
		},
		{
			"buffer":0,
			"byteLength":40548,
			"byteOffset":8600,
			"target":34962
		},
		{
			"buffer":0,
			"byteLength":40548,
			"byteOffset":49148,
			"target":34962
		},
		{
			"buffer":0,
			"byteLength":27032,
			"byteOffset":89696,
			"target":34962
		},
		{
			"buffer":0,
			"byteLength":31452,
			"byteOffset":116728,
			"target":34963
		},
		{
			"buffer":0,
			"byteLength":40548,
			"byteOffset":148180,
			"target":34962
		},
		{
			"buffer":0,
			"byteLength":40548,
			"byteOffset":188728,
			"target":34962
		},
		{
			"buffer":0,
			"byteLength":27032,
			"byteOffset":229276,
			"target":34962
		},
		{
			"buffer":0,
			"byteLength":40548,
			"byteOffset":256308,
			"target":34962
		},
		{
			"buffer":0,
			"byteLength":40548,
			"byteOffset":296856,
			"target":34962
		},
		{
			"buffer":0,
			"byteLength":27032,
			"byteOffset":337404,
			"target":34962
		},
		{
			"buffer":0,
			"byteLength":40548,
			"byteOffset":364436,
			"target":34962
		},
		{
			"buffer":0,
			"byteLength":40548,
			"byteOffset":404984,
			"target":34962
		},
		{
			"buffer":0,
			"byteLength":27032,
			"byteOffset":445532,
			"target":34962
		},
		{
			"buffer":0,
			"byteLength":40548,
			"byteOffset":472564,
			"target":34962
		},
		{
			"buffer":0,
			"byteLength":40548,
			"byteOffset":513112,
			"target":34962
		},
		{
			"buffer":0,
			"byteLength":27032,
			"byteOffset":553660,
			"target":34962
		},
		{
			"buffer":0,
			"byteLength":40548,
			"byteOffset":580692,
			"target":34962
		},
		{
			"buffer":0,
			"byteLength":40548,
			"byteOffset":621240,
			"target":34962
		},
		{
			"buffer":0,
			"byteLength":27032,
			"byteOffset":661788,
			"target":34962
		},
		{
			"buffer":0,
			"byteLength":40548,
			"byteOffset":688820,
			"target":34962
		},
		{
			"buffer":0,
			"byteLength":40548,
			"byteOffset":729368,
			"target":34962
		},
		{
			"buffer":0,
			"byteLength":27032,
			"byteOffset":769916,
			"target":34962
		},
		{
			"buffer":0,
			"byteLength":40548,
			"byteOffset":796948,
			"target":34962
		},
		{
			"buffer":0,
			"byteLength":40548,
			"byteOffset":837496,
			"target":34962
		},
		{
			"buffer":0,
			"byteLength":27032,
			"byteOffset":878044,
			"target":34962
		},
		{
			"buffer":0,
			"byteLength":40548,
			"byteOffset":905076,
			"target":34962
		},
		{
			"buffer":0,
			"byteLength":40548,
			"byteOffset":945624,
			"target":34962
		},
		{
			"buffer":0,
			"byteLength":27032,
			"byteOffset":986172,
			"target":34962
		},
		{
			"buffer":0,
			"byteLength":40548,
			"byteOffset":1013204,
			"target":34962
		},
		{
			"buffer":0,
			"byteLength":40548,
			"byteOffset":1053752,
			"target":34962
		},
		{
			"buffer":0,
			"byteLength":27032,
			"byteOffset":1094300,
			"target":34962
		},
		{
			"buffer":0,
			"byteLength":40548,
			"byteOffset":1121332,
			"target":34962
		},
		{
			"buffer":0,
			"byteLength":40548,
			"byteOffset":1161880,
			"target":34962
		},
		{
			"buffer":0,
			"byteLength":27032,
			"byteOffset":1202428,
			"target":34962
		},
		{
			"buffer":0,
			"byteLength":40548,
			"byteOffset":1229460,
			"target":34962
		},
		{
			"buffer":0,
			"byteLength":40548,
			"byteOffset":1270008,
			"target":34962
		},
		{
			"buffer":0,
			"byteLength":27032,
			"byteOffset":1310556,
			"target":34962
		},
		{
			"buffer":0,
			"byteLength":604,
			"byteOffset":1337588
		},
		{
			"buffer":0,
			"byteLength":1812,
			"byteOffset":1338192
		},
		{
			"buffer":0,
			"byteLength":2416,
			"byteOffset":1340004
		},
		{
			"buffer":0,
			"byteLength":8,
			"byteOffset":1342420
		},
		{
			"buffer":0,
			"byteLength":24,
			"byteOffset":1342428
		},
		{
			"buffer":0,
			"byteLength":1812,
			"byteOffset":1342452
		},
		{
			"buffer":0,
			"byteLength":2416,
			"byteOffset":1344264
		},
		{
			"buffer":0,
			"byteLength":24,
			"byteOffset":1346680
		},
		{
			"buffer":0,
			"byteLength":1812,
			"byteOffset":1346704
		},
		{
			"buffer":0,
			"byteLength":2416,
			"byteOffset":1348516
		},
		{
			"buffer":0,
			"byteLength":1812,
			"byteOffset":1350932
		},
		{
			"buffer":0,
			"byteLength":2416,
			"byteOffset":1352744
		},
		{
			"buffer":0,
			"byteLength":1812,
			"byteOffset":1355160
		},
		{
			"buffer":0,
			"byteLength":2416,
			"byteOffset":1356972
		},
		{
			"buffer":0,
			"byteLength":1812,
			"byteOffset":1359388
		},
		{
			"buffer":0,
			"byteLength":2416,
			"byteOffset":1361200
		},
		{
			"buffer":0,
			"byteLength":1812,
			"byteOffset":1363616
		},
		{
			"buffer":0,
			"byteLength":2416,
			"byteOffset":1365428
		},
		{
			"buffer":0,
			"byteLength":1812,
			"byteOffset":1367844
		},
		{
			"buffer":0,
			"byteLength":2416,
			"byteOffset":1369656
		},
		{
			"buffer":0,
			"byteLength":1812,
			"byteOffset":1372072
		},
		{
			"buffer":0,
			"byteLength":2416,
			"byteOffset":1373884
		},
		{
			"buffer":0,
			"byteLength":1812,
			"byteOffset":1376300
		},
		{
			"buffer":0,
			"byteLength":2416,
			"byteOffset":1378112
		},
		{
			"buffer":0,
			"byteLength":1812,
			"byteOffset":1380528
		},
		{
			"buffer":0,
			"byteLength":2416,
			"byteOffset":1382340
		},
		{
			"buffer":0,
			"byteLength":1812,
			"byteOffset":1384756
		},
		{
			"buffer":0,
			"byteLength":2416,
			"byteOffset":1386568
		}
	],
	"samplers":[
		{
			"magFilter":9729,
			"minFilter":9987
		}
	],
	"buffers":[
		{
			"byteLength":1388984,
			"uri":"simple_horse_animation.bin"
		}
	]
}
