{"accessors" : [{"bufferView" : 0, "byteOffset" : 0, "componentType" : 5123, "count" : 22908, "type" : "SCALAR", "max" : [15271], "min" : [0]}, {"bufferView" : 1, "byteOffset" : 0, "componentType" : 5126, "count" : 15272, "type" : "VEC3", "max" : [31.98290252685547, 189.4175567626953, 92.97251892089844], "min" : [-31.98290252685547, 50.512054443359375, -64.38726806640625], "name" : "POSITION"}, {"bufferView" : 1, "byteOffset" : 12, "componentType" : 5126, "count" : 15272, "type" : "VEC3", "max" : [1.0000044107437134, 0.9995836019515991, 0.9999028444290161], "min" : [-1.0000044107437134, -1.0000044107437134, -0.9996660351753235], "name" : "NORMAL"}, {"bufferView" : 1, "byteOffset" : 24, "componentType" : 5126, "count" : 15272, "type" : "VEC2", "max" : [0.827633261680603, 0.9956198930740356], "min" : [0.049809057265520096, 0.02080559730529785], "name" : "TEXCOORD_0"}, {"bufferView" : 0, "byteOffset" : 45816, "componentType" : 5123, "count" : 6210, "type" : "SCALAR", "max" : [4189], "min" : [0]}, {"bufferView" : 2, "byteOffset" : 0, "componentType" : 5126, "count" : 4190, "type" : "VEC3", "max" : [21.461997985839844, 18.001052856445312, 40.44564437866211], "min" : [-4.542819023132324, -75.02376556396484, -18.001052856445312], "name" : "POSITION"}, {"bufferView" : 2, "byteOffset" : 12, "componentType" : 5126, "count" : 4190, "type" : "VEC3", "max" : [1.0000044107437134, 0.9984395503997803, 0.997654378414154], "min" : [-1.0000044107437134, -0.995208203792572, -0.999358057975769], "name" : "NORMAL"}, {"bufferView" : 2, "byteOffset" : 24, "componentType" : 5126, "count" : 4190, "type" : "VEC2", "max" : [0.9467883706092834, 0.8174526691436768], "min" : [0.669604480266571, 0.15151524543762207], "name" : "TEXCOORD_0"}, {"bufferView" : 0, "byteOffset" : 58236, "componentType" : 5123, "count" : 6210, "type" : "SCALAR", "max" : [4191], "min" : [0]}, {"bufferView" : 3, "byteOffset" : 0, "componentType" : 5126, "count" : 4192, "type" : "VEC3", "max" : [4.542819023132324, 18.001052856445312, 40.44564437866211], "min" : [-21.461997985839844, -75.02376556396484, -18.001052856445312], "name" : "POSITION"}, {"bufferView" : 3, "byteOffset" : 12, "componentType" : 5126, "count" : 4192, "type" : "VEC3", "max" : [1.0000044107437134, 0.9984395503997803, 0.9976543188095093], "min" : [-1.0000044107437134, -0.9972991943359375, -0.999358057975769], "name" : "NORMAL"}, {"bufferView" : 3, "byteOffset" : 24, "componentType" : 5126, "count" : 4192, "type" : "VEC2", "max" : [0.6706214547157288, 0.8911639451980591], "min" : [0.15741106867790222, 0.1513206958770752], "name" : "TEXCOORD_0"}, {"bufferView" : 0, "byteOffset" : 70656, "componentType" : 5123, "count" : 5886, "type" : "SCALAR", "max" : [3977], "min" : [0]}, {"bufferView" : 4, "byteOffset" : 0, "componentType" : 5126, "count" : 3978, "type" : "VEC3", "max" : [15.575566291809082, 16.36186981201172, 16.370162963867188], "min" : [-10.211610794067383, -74.13379669189453, -35.49871063232422], "name" : "POSITION"}, {"bufferView" : 4, "byteOffset" : 12, "componentType" : 5126, "count" : 3978, "type" : "VEC3", "max" : [1.0000044107437134, 1.0000044107437134, 1], "min" : [-1.0000044107437134, -0.996806263923645, -0.99811190366745], "name" : "NORMAL"}, {"bufferView" : 4, "byteOffset" : 24, "componentType" : 5126, "count" : 3978, "type" : "VEC2", "max" : [0.9439309239387512, 0.998046875], "min" : [0.0019531252328306437, 0.001953125], "name" : "TEXCOORD_0"}, {"bufferView" : 0, "byteOffset" : 82428, "componentType" : 5123, "count" : 5886, "type" : "SCALAR", "max" : [3975], "min" : [0]}, {"bufferView" : 5, "byteOffset" : 0, "componentType" : 5126, "count" : 3976, "type" : "VEC3", "max" : [10.211610794067383, 16.36186981201172, 16.370162963867188], "min" : [-15.575565338134766, -74.13379669189453, -35.49871063232422], "name" : "POSITION"}, {"bufferView" : 5, "byteOffset" : 12, "componentType" : 5126, "count" : 3976, "type" : "VEC3", "max" : [1.0000044107437134, 1.0000044107437134, 1], "min" : [-1.0000044107437134, -0.9959745407104492, -0.99811190366745], "name" : "NORMAL"}, {"bufferView" : 5, "byteOffset" : 24, "componentType" : 5126, "count" : 3976, "type" : "VEC2", "max" : [0.9919120669364929, 0.9701011180877686], "min" : [0.32243984937667847, 0.6112126111984253], "name" : "TEXCOORD_0"}, {"bufferView" : 0, "byteOffset" : 94200, "componentType" : 5123, "count" : 3168, "type" : "SCALAR", "max" : [2206], "min" : [0]}, {"bufferView" : 6, "byteOffset" : 0, "componentType" : 5126, "count" : 2207, "type" : "VEC3", "max" : [37.83552169799805, 81.09506225585938, 46.46363067626953], "min" : [-37.83552169799805, 68.039794921875, -48.427066802978516], "name" : "POSITION"}, {"bufferView" : 6, "byteOffset" : 12, "componentType" : 5126, "count" : 2207, "type" : "VEC3", "max" : [1.0000044107437134, 0.9996854066848755, 0.9996854066848755], "min" : [-1.0000044107437134, -0.9996854066848755, -0.9996854066848755], "name" : "NORMAL"}, {"bufferView" : 6, "byteOffset" : 24, "componentType" : 5126, "count" : 2207, "type" : "VEC2", "max" : [0.9978536367416382, 0.9911860227584839], "min" : [0.002146327868103981, 0.002146303653717041], "name" : "TEXCOORD_0"}, {"bufferView" : 0, "byteOffset" : 100536, "componentType" : 5123, "count" : 5328, "type" : "SCALAR", "max" : [3551], "min" : [0]}, {"bufferView" : 7, "byteOffset" : 0, "componentType" : 5126, "count" : 3552, "type" : "VEC3", "max" : [6.009363174438477, 191.06910705566406, 72.7626953125], "min" : [-6.009363651275635, 93.40719604492188, -103.02623748779297], "name" : "POSITION"}, {"bufferView" : 7, "byteOffset" : 12, "componentType" : 5126, "count" : 3552, "type" : "VEC3", "max" : [0.9999988675117493, 0.9996161460876465, 0.9993419647216797], "min" : [-0.9999988675117493, -0.9999764561653137, -0.9998260140419006], "name" : "NORMAL"}, {"bufferView" : 7, "byteOffset" : 24, "componentType" : 5126, "count" : 3552, "type" : "VEC2", "max" : [0.7408486008644104, 0.9980438947677612], "min" : [0.001956030260771513, 0.001956045627593994], "name" : "TEXCOORD_0"}], "asset" : {"generator" : "Aspose.3D 25.11.0", "version" : "2.0"}, "buffers" : [{"uri" : "data:application/octet-stream;base64,", "byteLength" : 1306968}], "bufferViews" : [{"buffer" : 0, "byteOffset" : 0, "byteLength" : 111192, "target" : 34963}, {"buffer" : 0, "byteOffset" : 111196, "byteLength" : 488704, "byteStride" : 32, "target" : 34962}, {"buffer" : 0, "byteOffset" : 599904, "byteLength" : 134080, "byteStride" : 32, "target" : 34962}, {"buffer" : 0, "byteOffset" : 733988, "byteLength" : 134144, "byteStride" : 32, "target" : 34962}, {"buffer" : 0, "byteOffset" : 868136, "byteLength" : 127296, "byteStride" : 32, "target" : 34962}, {"buffer" : 0, "byteOffset" : 995436, "byteLength" : 127232, "byteStride" : 32, "target" : 34962}, {"buffer" : 0, "byteOffset" : 1122672, "byteLength" : 70624, "byteStride" : 32, "target" : 34962}, {"buffer" : 0, "byteOffset" : 1193300, "byteLength" : 113664, "byteStride" : 32, "target" : 34962}], "materials" : [{"name" : "M_horse", "pbrMetallicRoughness" : {"baseColorFactor" : [0.6038273388553378, 0.11666472059322557, 0.11666472059322557, 1], "metallicFactor" : 1, "roughnessFactor" : 1}, "emissiveFactor" : [0, 0, 0], "alphaMode" : "OPAQUE", "doubleSided" : false}, {"name" : "M_horse_bolt", "pbrMetallicRoughness" : {"baseColorFactor" : [0.3303437128042374, 0.3303437128042374, 0.3303437128042374, 1], "metallicFactor" : 1, "roughnessFactor" : 1}, "emissiveFactor" : [0, 0, 0], "alphaMode" : "OPAQUE", "doubleSided" : false}, {"name" : "M_horse_hair", "pbrMetallicRoughness" : {"baseColorFactor" : [0.6038273388553378, 0.6038273388553378, 0.056661978662884055, 1], "metallicFactor" : 1, "roughnessFactor" : 1}, "emissiveFactor" : [0, 0, 0], "alphaMode" : "OPAQUE", "doubleSided" : false}], "meshes" : [{"primitives" : [{"attributes" : {"POSITION" : 1, "NORMAL" : 2, "TEXCOORD_0" : 3}, "indices" : 0, "material" : 0, "mode" : 4}], "name" : ""}, {"primitives" : [{"attributes" : {"POSITION" : 5, "NORMAL" : 6, "TEXCOORD_0" : 7}, "indices" : 4, "material" : 0, "mode" : 4}], "name" : ""}, {"primitives" : [{"attributes" : {"POSITION" : 9, "NORMAL" : 10, "TEXCOORD_0" : 11}, "indices" : 8, "material" : 0, "mode" : 4}], "name" : ""}, {"primitives" : [{"attributes" : {"POSITION" : 13, "NORMAL" : 14, "TEXCOORD_0" : 15}, "indices" : 12, "material" : 0, "mode" : 4}], "name" : ""}, {"primitives" : [{"attributes" : {"POSITION" : 17, "NORMAL" : 18, "TEXCOORD_0" : 19}, "indices" : 16, "material" : 0, "mode" : 4}], "name" : ""}, {"primitives" : [{"attributes" : {"POSITION" : 21, "NORMAL" : 22, "TEXCOORD_0" : 23}, "indices" : 20, "material" : 1, "mode" : 4}], "name" : ""}, {"primitives" : [{"attributes" : {"POSITION" : 25, "NORMAL" : 26, "TEXCOORD_0" : 27}, "indices" : 24, "material" : 2, "mode" : 4}], "name" : ""}], "nodes" : [{"mesh" : 0, "name" : "SM_horse_body"}, {"matrix" : [1, 0, 0, 0, 0, 1, 0, 0, 0, 0, 1, 0, -35.262032139070314, 75.12915482002471, 40.30773006388915, 1], "mesh" : 1, "name" : "SM_horse_leg_LF"}, {"matrix" : [1, 0, 0, 0, 0, 1, 0, 0, 0, 0, 1, 0, 35.2620321390703, 75.12915482002471, 40.30773006388917, 1], "mesh" : 2, "name" : "SM_horse_leg_RF"}, {"matrix" : [1, 0, 0, 0, 0, 1, 0, 0, 0, 0, 1, 0, -29.483957225184792, 74.23918151855469, -42.242451480167574, 1], "mesh" : 3, "name" : "SM_horse_leg_LB"}, {"matrix" : [1, 0, 0, 0, 0, 1, 0, 0, 0, 0, 1, 0, 29.4839572251848, 74.23918151855469, -42.24245148016756, 1], "mesh" : 4, "name" : "SM_horse_leg_RB"}, {"mesh" : 5, "name" : "SM_horse_bolt"}, {"mesh" : 6, "name" : "SM_horse_hair"}], "scene" : 0, "scenes" : [{"nodes" : [0, 1, 2, 3, 4, 5, 6]}]}