<svg width="234" height="34" viewBox="0 0 234 34" fill="none" xmlns="http://www.w3.org/2000/svg">
<path d="M38.4356 7.41275H36.0526C35.6437 7.41275 35.2568 7.23173 34.9886 6.92268C34.7248 6.60921 34.6105 6.19421 34.6721 5.79245C34.6853 5.71739 34.694 5.63792 34.694 5.55845V1.39955C34.694 0.626932 34.0697 0 33.3003 0H27.1494C26.38 0 25.7556 0.626932 25.7556 1.39955V5.011C25.7556 5.78362 25.1313 6.41054 24.3619 6.41054H18.998H15.4675C14.698 6.41054 14.0737 5.78362 14.0737 5.011V1.39955C14.0737 0.626932 13.4494 0 12.68 0H6.52904C5.75963 0 5.13531 0.626932 5.13531 1.39955V5.55845C5.13531 5.63792 5.1441 5.71739 5.15729 5.79245C5.22324 6.19862 5.10892 6.60921 4.84073 6.92268C4.57693 7.23614 4.18562 7.41275 3.77673 7.41275H1.39375C0.624332 7.41275 0 8.03967 0 8.81229V32.0262C0 32.7989 0.624332 33.4258 1.39375 33.4258H5.75963C6.52904 33.4258 7.15338 32.7989 7.15338 32.0262V8.81229C7.15338 8.73282 7.14457 8.65336 7.13138 8.57389C7.06543 8.16771 7.17975 7.75712 7.44794 7.44366C7.71174 7.13019 8.09866 6.95359 8.51194 6.95359H11.8974C12.6668 6.95359 13.2911 7.58052 13.2911 8.35314V11.9646C13.2911 12.7372 13.9154 13.3641 14.6849 13.3641H15.8588C16.4259 13.3641 16.9359 13.7085 17.1514 14.2383C17.3668 14.7681 17.2393 15.3729 16.8348 15.7703C16.5666 16.0352 16.4127 16.3928 16.4127 16.7725V23.2272C16.4127 23.9998 17.0371 24.6267 17.8065 24.6267H22.0361C22.8055 24.6267 23.4298 23.9998 23.4298 23.2272V16.7725C23.4298 16.3928 23.2803 16.0352 23.0077 15.7703C22.5988 15.3729 22.4757 14.7681 22.6868 14.2383C22.9022 13.7085 23.4122 13.3641 23.9794 13.3641H24.9906H25.1489C25.9183 13.3641 26.5427 12.7372 26.5427 11.9646V8.35314C26.5427 7.58052 27.167 6.95359 27.9364 6.95359H31.3218C31.7307 6.95359 32.122 7.13461 32.3858 7.44366C32.6496 7.75712 32.7639 8.17212 32.698 8.57389C32.6848 8.64894 32.6804 8.7284 32.6804 8.81229V32.0262C32.6804 32.7989 33.3047 33.4258 34.0741 33.4258H38.44C39.2094 33.4258 39.8337 32.7989 39.8337 32.0262V8.81229C39.8337 8.03967 39.205 7.41275 38.4356 7.41275Z" fill="white"/>
<path d="M99.1265 34C98.357 34 97.7327 33.3731 97.7327 32.6005V8.53003C97.7327 7.75741 97.1084 7.13048 96.339 7.13048H85.1759C84.4065 7.13048 83.7821 6.50356 83.7821 5.73094V1.57203C83.7821 0.799404 84.4065 0.172485 85.1759 0.172485H98.212C98.9814 0.172485 99.6057 0.799404 99.6057 1.57203V4.87443C99.6057 5.64705 100.23 6.27397 100.999 6.27397H102.077C102.846 6.27397 103.47 5.64705 103.47 4.87443V1.74422C103.47 0.971595 104.095 0.344662 104.864 0.344662H117.645C118.415 0.344662 119.039 0.971595 119.039 1.74422V5.90312C119.039 6.67574 118.415 7.30267 117.645 7.30267H106.913C106.144 7.30267 105.519 7.92959 105.519 8.70221V32.6005C105.519 33.3731 104.895 34 104.125 34H99.1265Z" fill="white"/>
<path d="M49.9119 33.7798C49.1425 33.7798 48.5182 33.1529 48.5182 32.3802V28.5127C48.5182 27.7401 47.8938 27.1132 47.1244 27.1132H44.9877C44.2182 27.1132 43.5939 26.4862 43.5939 25.7136V8.93671C43.5939 8.16409 44.2182 7.53717 44.9877 7.53717H47.1596C47.5685 7.53717 47.9554 7.35616 48.2236 7.0427C48.4874 6.72924 48.6017 6.31864 48.5401 5.91247C48.527 5.83741 48.5182 5.75794 48.5182 5.67405V1.51514C48.5182 0.74252 49.1469 0.115601 49.9119 0.115601H75.2103C75.9797 0.115601 76.604 0.74252 76.604 1.51514C76.604 1.51514 76.604 5.57251 76.5996 5.78443C76.5952 6.1597 76.7403 6.52173 76.9997 6.79104C77.2635 7.05594 77.6197 7.21047 77.9934 7.21047H81.2557C82.0251 7.21047 82.6494 7.83739 82.6494 8.61001V12.7689C82.6494 13.5415 82.0251 14.1685 81.2557 14.1685H76.7623C75.9929 14.1685 75.3686 13.5415 75.3686 12.7689C75.3686 12.7689 75.3686 8.71155 75.373 8.49963C75.3774 8.12436 75.2323 7.75792 74.9729 7.49302C74.7091 7.22812 74.353 7.07359 73.9792 7.07359H51.8948C51.4859 7.07359 51.0946 7.25462 50.8308 7.56808C50.567 7.88155 50.4527 8.29214 50.5142 8.69831C50.5274 8.77337 50.5318 8.85283 50.5318 8.93671V11.9433C50.5318 12.7159 51.1562 13.3429 51.9256 13.3429H68.479C69.2484 13.3429 69.8727 13.9698 69.8727 14.7424V18.9013C69.8727 19.6739 69.2484 20.3009 68.479 20.3009H51.9256C51.1562 20.3009 50.5318 20.9278 50.5318 21.7004V25.4178C50.5318 26.1904 51.1562 26.8174 51.9256 26.8174H73.9704C74.7399 26.8174 75.3642 26.1904 75.3642 25.4178V21.4488C75.3642 20.6761 75.9885 20.0492 76.7579 20.0492H81.2513C82.0207 20.0492 82.645 20.6761 82.645 21.4488V25.6077C82.645 26.3803 82.0207 27.0072 81.2513 27.0072H77.9934C77.2239 27.0072 76.5996 27.6341 76.5996 28.4068V32.3758C76.5996 33.1485 75.9753 33.7754 75.2059 33.7754H49.9119V33.7798Z" fill="white"/>
<path d="M156.509 7.78376H154.337C153.928 7.78376 153.536 7.60274 153.273 7.28486C153.009 6.9714 152.894 6.55198 152.965 6.1458C152.978 6.07075 152.982 6.0001 152.982 5.92063V1.76172C152.982 0.989102 152.354 0.362183 151.589 0.362183H127.306C126.536 0.362183 125.912 0.989102 125.912 1.76172V5.92063C125.912 5.99569 125.921 6.07075 125.93 6.1458C126 6.55198 125.886 6.96698 125.622 7.28486C125.358 7.60274 124.967 7.78376 124.558 7.78376H122.386C121.617 7.78376 120.992 8.41067 120.992 9.18329V32.5915C120.992 33.3641 121.617 33.991 122.386 33.991H126.748C127.517 33.991 128.141 33.3641 128.141 32.5915V22.1633C128.141 21.3907 128.766 20.7638 129.535 20.7638H134.503H144.387H149.355C150.125 20.7638 150.749 21.3907 150.749 22.1633V32.5915C150.749 33.3641 151.373 33.991 152.143 33.991H156.509C157.278 33.991 157.902 33.3641 157.902 32.5915V9.18329C157.902 8.41067 157.274 7.78376 156.509 7.78376ZM150.762 8.95814C150.749 9.02878 150.745 9.10383 150.745 9.18329V12.4062C150.745 13.1789 150.12 13.8058 149.351 13.8058H144.383H134.499H129.531C128.761 13.8058 128.137 13.1789 128.137 12.4062V9.18329C128.137 9.10824 128.128 9.03319 128.119 8.95814C128.049 8.55196 128.163 8.13253 128.427 7.81907C128.691 7.50561 129.082 7.32019 129.491 7.32019H149.39C149.799 7.32019 150.191 7.50119 150.454 7.81907C150.723 8.13253 150.832 8.55196 150.762 8.95814Z" fill="white"/>
<path d="M173.822 1.16748C175.5 1.16748 176.982 1.40218 178.03 2.04443C179.034 2.6594 179.702 3.68499 179.702 5.45361C179.702 7.29156 178.783 8.62021 177.546 9.18408L176.314 9.74463L177.614 10.1196C178.658 10.4203 179.359 10.9238 179.807 11.5767C180.258 12.2354 180.484 13.0957 180.484 14.1646C180.484 15.988 179.821 17.197 178.781 17.9673C177.717 18.7553 176.197 19.1294 174.42 19.1294H167.886V1.16748H173.822ZM168.631 18.5356H174.521C176.134 18.5356 177.422 18.1835 178.313 17.4263C179.219 16.6566 179.634 15.5385 179.634 14.1909C179.634 12.7959 179.221 11.7059 178.273 10.9907C177.358 10.3002 176.031 10.0308 174.367 10.0308H168.631V18.5356ZM168.636 9.01221H169.131V9.51221H174.161C175.484 9.51219 176.67 9.30131 177.532 8.67139C178.428 8.01684 178.882 6.98097 178.882 5.55908C178.882 4.27889 178.424 3.29366 177.558 2.64697C176.716 2.01927 175.557 1.76124 174.24 1.76123H168.636V9.01221Z" fill="#D72D41" stroke="#D72D41"/>
<path d="M196.572 1.16223V18.504H198.841V23.1554H198.174V19.129H183.004V23.1554H182.333V18.504H182.743C183.447 18.504 184 18.0775 184.418 17.4777C184.834 16.8798 185.168 16.04 185.441 15.0314C185.989 13.0075 186.33 10.153 186.5 6.7804L186.501 6.77649L186.739 1.16223H196.572ZM187.48 2.26477L187.273 6.99231C186.935 13.155 185.895 16.2815 184.751 17.6886L184.088 18.504H195.326V18.0089H195.826V1.78723H187.501L187.48 2.26477Z" fill="#D72D41" stroke="#D72D41"/>
<path d="M202.679 1.16748V9.48486H214.803V1.16748H215.548V19.1294H214.803V10.1323H202.679V19.1294H201.934V1.16748H202.679Z" fill="#D72D41" stroke="#D72D41"/>
<path d="M220.249 1.16748L225.542 8.62158L225.947 9.19092L226.355 8.62451L231.728 1.16748H232.581L226.585 9.50146L226.376 9.7915L226.584 10.0835L233.03 19.1294H232.068L226.304 11.0483L225.899 10.48L225.491 11.0464L219.679 19.1294H218.826L225.261 10.1646L225.469 9.87451L225.263 9.5835L219.31 1.16748H220.249Z" fill="#D72D41" stroke="#D72D41"/>
</svg>
