{
	"asset":{
		"generator":"Khronos glTF Blender I/O v4.5.47",
		"version":"2.0"
	},
	"scene":0,
	"scenes":[
		{
			"name":"Scene",
			"nodes":[
				0,
				4
			]
		}
	],
	"nodes":[
		{
			"mesh":0,
			"name":"tree_001",
			"rotation":[
				0.7071068286895752,
				0,
				0,
				0.7071068286895752
			],
			"scale":[
				0.009999999776482582,
				0.009999999776482582,
				0.009999999776482582
			]
		},
		{
			"mesh":1,
			"name":"ice_part_01"
		},
		{
			"mesh":2,
			"name":"ice_part_02"
		},
		{
			"mesh":3,
			"name":"ice_part_03"
		},
		{
			"children":[
				1,
				2,
				3
			],
			"name":"Ice",
			"rotation":[
				0.7071068286895752,
				0,
				0,
				0.7071068286895752
			],
			"scale":[
				0.009999999776482582,
				0.009999999776482582,
				0.009999999776482582
			]
		}
	],
	"materials":[
		{
			"doubleSided":true,
			"name":"Cristmas_tree_02",
			"pbrMetallicRoughness":{
				"baseColorTexture":{
					"index":0
				},
				"metallicFactor":0,
				"roughnessFactor":0.5527864098548889
			}
		},
		{
			"alphaMode":"BLEND",
			"doubleSided":true,
			"name":"phong1",
			"pbrMetallicRoughness":{
				"baseColorFactor":[
					0.21415269374847412,
					0.26300153136253357,
					0.6846374273300171,
					0.2909091114997864
				],
				"metallicFactor":0.5,
				"roughnessFactor":0.5527864098548889
			}
		}
	],
	"meshes":[
		{
			"name":"Mesh",
			"primitives":[
				{
					"attributes":{
						"POSITION":0,
						"NORMAL":1,
						"TEXCOORD_0":2,
						"COLOR_0":3,
						"COLOR_1":4
					},
					"indices":5,
					"material":0
				}
			]
		},
		{
			"name":"Mesh.001",
			"primitives":[
				{
					"attributes":{
						"POSITION":6,
						"NORMAL":7,
						"TEXCOORD_0":8
					},
					"indices":9,
					"material":1
				}
			]
		},
		{
			"name":"Mesh.002",
			"primitives":[
				{
					"attributes":{
						"POSITION":10,
						"NORMAL":11,
						"TEXCOORD_0":12
					},
					"indices":13,
					"material":1
				}
			]
		},
		{
			"name":"Mesh.003",
			"primitives":[
				{
					"attributes":{
						"POSITION":14,
						"NORMAL":15,
						"TEXCOORD_0":16
					},
					"indices":17,
					"material":1
				}
			]
		}
	],
	"textures":[
		{
			"sampler":0,
			"source":0
		}
	],
	"images":[
		{
			"mimeType":"image/png",
			"name":"T_tree_toys_BC",
			"uri":"T_tree_toys_BC.png"
		}
	],
	"accessors":[
		{
			"bufferView":0,
			"componentType":5126,
			"count":11016,
			"max":[
				46.759273529052734,
				50.31282424926758,
				1.2908692359924316
			],
			"min":[
				-46.759273529052734,
				-50.31282424926758,
				-164.90176391601562
			],
			"type":"VEC3"
		},
		{
			"bufferView":1,
			"componentType":5126,
			"count":11016,
			"type":"VEC3"
		},
		{
			"bufferView":2,
			"componentType":5126,
			"count":11016,
			"type":"VEC2"
		},
		{
			"bufferView":3,
			"componentType":5121,
			"count":11016,
			"normalized":true,
			"type":"VEC4"
		},
		{
			"bufferView":4,
			"componentType":5123,
			"count":11016,
			"normalized":true,
			"type":"VEC4"
		},
		{
			"bufferView":5,
			"componentType":5123,
			"count":56904,
			"type":"SCALAR"
		},
		{
			"bufferView":6,
			"componentType":5126,
			"count":6996,
			"max":[
				20.875083923339844,
				25.735374450683594,
				-84.85537719726562
			],
			"min":[
				-22.268497467041016,
				-17.133203506469727,
				-143.25225830078125
			],
			"type":"VEC3"
		},
		{
			"bufferView":7,
			"componentType":5126,
			"count":6996,
			"type":"VEC3"
		},
		{
			"bufferView":8,
			"componentType":5126,
			"count":6996,
			"type":"VEC2"
		},
		{
			"bufferView":9,
			"componentType":5123,
			"count":40272,
			"type":"SCALAR"
		},
		{
			"bufferView":10,
			"componentType":5126,
			"count":8805,
			"max":[
				33.99104690551758,
				39.60102081298828,
				-40.082698822021484
			],
			"min":[
				-38.45520782470703,
				-32.887351989746094,
				-103.86431884765625
			],
			"type":"VEC3"
		},
		{
			"bufferView":11,
			"componentType":5126,
			"count":8805,
			"type":"VEC3"
		},
		{
			"bufferView":12,
			"componentType":5126,
			"count":8805,
			"type":"VEC2"
		},
		{
			"bufferView":13,
			"componentType":5123,
			"count":47952,
			"type":"SCALAR"
		},
		{
			"bufferView":14,
			"componentType":5126,
			"count":7085,
			"max":[
				50.136436462402344,
				53.59979248046875,
				5.430755615234375
			],
			"min":[
				-49.94379425048828,
				-48.80469512939453,
				-58.617733001708984
			],
			"type":"VEC3"
		},
		{
			"bufferView":15,
			"componentType":5126,
			"count":7085,
			"type":"VEC3"
		},
		{
			"bufferView":16,
			"componentType":5126,
			"count":7085,
			"type":"VEC2"
		},
		{
			"bufferView":17,
			"componentType":5123,
			"count":40272,
			"type":"SCALAR"
		}
	],
	"bufferViews":[
		{
			"buffer":0,
			"byteLength":132192,
			"byteOffset":0,
			"target":34962
		},
		{
			"buffer":0,
			"byteLength":132192,
			"byteOffset":132192,
			"target":34962
		},
		{
			"buffer":0,
			"byteLength":88128,
			"byteOffset":264384,
			"target":34962
		},
		{
			"buffer":0,
			"byteLength":44064,
			"byteOffset":352512,
			"target":34962
		},
		{
			"buffer":0,
			"byteLength":88128,
			"byteOffset":396576,
			"target":34962
		},
		{
			"buffer":0,
			"byteLength":113808,
			"byteOffset":484704,
			"target":34963
		},
		{
			"buffer":0,
			"byteLength":83952,
			"byteOffset":598512,
			"target":34962
		},
		{
			"buffer":0,
			"byteLength":83952,
			"byteOffset":682464,
			"target":34962
		},
		{
			"buffer":0,
			"byteLength":55968,
			"byteOffset":766416,
			"target":34962
		},
		{
			"buffer":0,
			"byteLength":80544,
			"byteOffset":822384,
			"target":34963
		},
		{
			"buffer":0,
			"byteLength":105660,
			"byteOffset":902928,
			"target":34962
		},
		{
			"buffer":0,
			"byteLength":105660,
			"byteOffset":1008588,
			"target":34962
		},
		{
			"buffer":0,
			"byteLength":70440,
			"byteOffset":1114248,
			"target":34962
		},
		{
			"buffer":0,
			"byteLength":95904,
			"byteOffset":1184688,
			"target":34963
		},
		{
			"buffer":0,
			"byteLength":85020,
			"byteOffset":1280592,
			"target":34962
		},
		{
			"buffer":0,
			"byteLength":85020,
			"byteOffset":1365612,
			"target":34962
		},
		{
			"buffer":0,
			"byteLength":56680,
			"byteOffset":1450632,
			"target":34962
		},
		{
			"buffer":0,
			"byteLength":80544,
			"byteOffset":1507312,
			"target":34963
		}
	],
	"samplers":[
		{
			"magFilter":9729,
			"minFilter":9987
		}
	],
	"buffers":[
		{
			"byteLength":1587856,
			"uri":"Pine%20tree%20ice.bin"
		}
	]
}
