{
  "asset": {
    "generator": "Khronos glTF Blender I/O v1.1.46",
    "version": "2.0"
  },
  "scene": 0,
  "scenes": [
    {
      "name": "Scene",
      "nodes": [0, 1]
    }
  ],
  "nodes": [
    {
      "mesh": 0,
      "name": "main",
      "rotation": [0.7071068286895752, 0, 0, 0.7071067094802856]
    },
    {
      "mesh": 1,
      "name": "details",
      "rotation": [0.7071068286895752, 0, 0, 0.7071067094802856]
    }
  ],
  "materials": [
    {
      "doubleSided": true,
      "emissiveFactor": [0, 0, 0],
      "name": "main",
      "normalTexture": {
        "index": 0,
        "texCoord": 0
      },
      "pbrMetallicRoughness": {
        "baseColorTexture": {
          "index": 1,
          "texCoord": 0
        },
        "metallicRoughnessTexture": {
          "index": 2,
          "texCoord": 0
        }
      }
    },
    {
      "doubleSided": true,
      "emissiveFactor": [0, 0, 0],
      "name": "details",
      "pbrMetallicRoughness": {
        "baseColorTexture": {
          "index": 3,
          "texCoord": 0
        },
        "metallicFactor": 0,
        "metallicRoughnessTexture": {
          "index": 4,
          "texCoord": 0
        }
      }
    }
  ],
  "meshes": [
    {
      "name": "Plane",
      "primitives": [
        {
          "attributes": {
            "POSITION": 0,
            "NORMAL": 1,
            "TEXCOORD_0": 2
          },
          "indices": 3,
          "material": 0
        }
      ]
    },
    {
      "name": "Plane.016",
      "primitives": [
        {
          "attributes": {
            "POSITION": 4,
            "NORMAL": 5,
            "TEXCOORD_0": 6
          },
          "indices": 7,
          "material": 1
        }
      ]
    }
  ],
  "textures": [
    {
      "source": 0
    },
    {
      "source": 1
    },
    {
      "source": 2
    },
    {
      "source": 3
    },
    {
      "source": 4
    }
  ],
  "images": [
    {
      "mimeType": "image/png",
      "name": "main_Normal",
      "uri": "main_Normal.jpg"
    },
    {
      "mimeType": "image/png",
      "name": "main_Base_color",
      "uri": "main_Base_color.jpg"
    },
    {
      "mimeType": "image/png",
      "name": "main_Roughness",
      "uri": "main_Roughness.png"
    },
    {
      "mimeType": "image/png",
      "name": "details_Base_color",
      "uri": "details_Base_color.png"
    },
    {
      "mimeType": "image/png",
      "name": "details_Roughness",
      "uri": "details_Roughness.png"
    }
  ],
  "accessors": [
    {
      "bufferView": 0,
      "componentType": 5126,
      "count": 492,
      "max": [0.0991300418972969, 0.06534279882907867, 0.12133677303791046],
      "min": [-0.10506122559309006, -0.03517886996269226, -0.04970764368772507],
      "type": "VEC3"
    },
    {
      "bufferView": 1,
      "componentType": 5126,
      "count": 492,
      "type": "VEC3"
    },
    {
      "bufferView": 2,
      "componentType": 5126,
      "count": 492,
      "type": "VEC2"
    },
    {
      "bufferView": 3,
      "componentType": 5123,
      "count": 1992,
      "type": "SCALAR"
    },
    {
      "bufferView": 4,
      "componentType": 5126,
      "count": 2665,
      "max": [0.10022629797458649, 0.06422801315784454, 0.12239277362823486],
      "min": [
        -0.10630446672439575, -0.036142557859420776, -0.055516574531793594
      ],
      "type": "VEC3"
    },
    {
      "bufferView": 5,
      "componentType": 5126,
      "count": 2665,
      "type": "VEC3"
    },
    {
      "bufferView": 6,
      "componentType": 5126,
      "count": 2665,
      "type": "VEC2"
    },
    {
      "bufferView": 7,
      "componentType": 5123,
      "count": 10860,
      "type": "SCALAR"
    }
  ],
  "bufferViews": [
    {
      "buffer": 0,
      "byteLength": 5904,
      "byteOffset": 0
    },
    {
      "buffer": 0,
      "byteLength": 5904,
      "byteOffset": 5904
    },
    {
      "buffer": 0,
      "byteLength": 3936,
      "byteOffset": 11808
    },
    {
      "buffer": 0,
      "byteLength": 3984,
      "byteOffset": 15744
    },
    {
      "buffer": 0,
      "byteLength": 31980,
      "byteOffset": 19728
    },
    {
      "buffer": 0,
      "byteLength": 31980,
      "byteOffset": 51708
    },
    {
      "buffer": 0,
      "byteLength": 21320,
      "byteOffset": 83688
    },
    {
      "buffer": 0,
      "byteLength": 21720,
      "byteOffset": 105008
    }
  ],
  "buffers": [
    {
      "byteLength": 126728,
      "uri": "khokhloma_hat_scale.bin"
    }
  ]
}
